<?xml version="1.0" encoding="UTF-8" standalone="no"?><!DOCTYPE svg PUBLIC "-//W3C//DTD SVG 1.1//EN" "http://www.w3.org/Graphics/SVG/1.1/DTD/svg11.dtd"><svg width="100%" height="100%" viewBox="0 0 302 81" version="1.1" xmlns="http://www.w3.org/2000/svg" xmlns:xlink="http://www.w3.org/1999/xlink" xml:space="preserve" xmlns:serif="http://www.serif.com/" style="fill-rule:evenodd;clip-rule:evenodd;stroke-linejoin:round;stroke-miterlimit:2;"><path d="M100.358,44.808c-2.798,-0 -5.097,2.35 -5.097,5.15l-0,10.049c-0,3.704 -2.302,6.005 -5.954,6.005c-3.603,-0 -5.604,-2.301 -5.604,-6.001l-0,-10.052c-0,-2.801 -2.299,-5.151 -5.148,-5.151c-2.849,-0 -5.148,2.35 -5.148,5.151l0,10.552c0,8.999 4.099,14.596 11.847,14.596c4.203,-0 7.855,-1.7 10.007,-5.397l-0,1.149c-0,2.249 2.299,4.048 4.948,4.048c2.998,-0 5.347,-2.299 5.347,-5.098l0,-19.85c0,-2.801 -2.349,-5.151 -5.198,-5.151Z" style="fill:#4d16a3;fill-rule:nonzero;"/><path d="M119.211,74.907c2.898,-0 5.148,-2.3 5.148,-5.15l-0,-19.849c-0,-2.85 -2.25,-5.101 -5.148,-5.101c-2.849,0 -5.148,2.251 -5.148,5.101l0,19.849c0,2.85 2.299,5.15 5.148,5.15Zm-0,-32.855c2.898,0 5.148,-2.3 5.148,-5.148c-0,-2.898 -2.25,-5.148 -5.148,-5.148c-2.849,-0 -5.148,2.25 -5.148,5.148c0,2.848 2.299,5.148 5.148,5.148Z" style="fill:#4d16a3;fill-rule:nonzero;"/><path d="M136.365,74.357l22.349,-0c2.3,-0 4.2,-1.899 4.2,-4.198c0,-2.299 -1.9,-4.197 -4.2,-4.197l-12.899,-0l13.999,-11.258c1.5,-0.801 2.6,-2.4 2.6,-4.249c0,-2.848 -2.35,-5.097 -5.099,-5.097l-21.05,0c-2.25,0 -4.15,1.849 -4.15,4.148c0,2.348 1.9,4.197 4.15,4.197l11.55,0l-14,11.258c-1.5,0.8 -2.55,2.4 -2.55,4.299c0,2.798 2.35,5.097 5.1,5.097Z" style="fill:#4d16a3;fill-rule:nonzero;"/><path d="M184.367,74.357l2.5,-0c2.651,-0 4.551,-1.801 4.551,-4.35c0,-2.499 -1.9,-4.298 -4.551,-4.298l-0.5,-0c-2.85,-0 -3.85,-1.599 -3.85,-4.148l-0,-7.558l4.35,0c2.701,0 4.601,-1.849 4.601,-4.347c0,-2.499 -1.9,-4.298 -4.601,-4.298l-4.35,0l-0,-2.75c-0,-3.001 -2.201,-5.151 -5.151,-5.151c-3.001,-0 -5.151,2.15 -5.151,5.151l-0,2.75l-1.398,0c-2.446,0 -4.297,1.799 -4.297,4.298c0,2.498 1.851,4.347 4.497,4.347l1.198,0l-0,7.708c-0,7.796 5.001,12.646 12.152,12.646Z" style="fill:#4d16a3;fill-rule:nonzero;"/><path d="M212.625,75.207c6.9,-0 14.049,-3.648 14.049,-8.346c-0,-2.452 -1.95,-4.104 -4.65,-4.104c-3.899,0 -3.649,4.404 -9.199,4.404c-4.149,-0 -6.599,-1.95 -6.799,-6.156l17.048,0c2.9,0 4.55,-1.798 4.4,-4.546c-0.5,-7.804 -7.65,-11.951 -14.899,-11.951c-10.253,-0 -16.653,5.846 -16.653,15.347c-0,9.455 6.4,15.352 16.703,15.352Zm5.9,-18.197l-12.099,-0c0.85,-2.854 3.05,-4.507 6.199,-4.507c3.05,0 5.15,1.653 5.9,4.507Z" style="fill:#4d16a3;fill-rule:nonzero;"/><path d="M249.078,75.207c6.849,-0 14.25,-3.501 14.25,-8.402c0,-2.448 -1.95,-4.048 -4.6,-4.048c-3.951,0 -3.951,4.348 -9.35,4.348c-4.298,0 -6.747,-2.798 -6.747,-7.246c-0,-4.502 2.499,-7.306 6.797,-7.306c5.049,0 5.499,3.856 9.3,3.856c2.5,-0 4.35,-1.352 4.35,-3.906c0,-4.897 -6.701,-7.995 -13.85,-7.995c-10.253,-0 -16.7,5.846 -16.7,15.351c0,9.447 6.797,15.348 16.55,15.348Z" style="fill:#4d16a3;fill-rule:nonzero;"/><path d="M275.033,74.907c2.852,-0 5.103,-2.351 5.103,-5.151l0,-10.052c0,-3.8 2.249,-6.001 5.948,-6.001c3.648,0 5.598,2.201 5.598,6.001l0,10.052c0,2.8 2.301,5.151 5.151,5.151c2.851,-0 5.151,-2.351 5.151,-5.151l0,-10.552c0,-9.001 -4.101,-14.6 -11.852,-14.6c-4.198,0 -7.846,1.7 -9.996,5.399l0,-11.096c0,-2.85 -2.251,-5.101 -5.154,-5.101c-2.852,0 -5.152,2.251 -5.152,5.101l0,30.849c0,2.8 2.35,5.151 5.203,5.151Z" style="fill:#4d16a3;fill-rule:nonzero;"/><path d="M28.433,0.003c15.691,0 28.416,12.725 28.416,28.417c0,0.558 -0.025,1.108 -0.05,1.666c-0.266,2.5 -2.383,4.45 -4.958,4.45c-0.233,0 -0.458,-0.016 -0.675,-0.05c-1.317,-0.216 -2.658,-0.325 -4.033,-0.325c-10.825,0 -20.017,6.992 -23.292,16.709l-0.025,-0c-0.025,0.1 -0.05,0.2 -0.075,0.3l-0.117,0.366c-0.691,1.917 -2.533,3.292 -4.691,3.292c-0.625,0 -1.225,-0.117 -1.775,-0.325l-0.034,-0.017c-10.066,-4.366 -17.108,-14.391 -17.108,-26.066c-0,-15.692 12.725,-28.417 28.417,-28.417m-0,18.033c5.733,0 10.383,4.65 10.383,10.384l-20.767,-0c0,-5.734 4.65,-10.384 10.384,-10.384" style="fill:#4d16a3;"/><path d="M47.136,40.982c9.808,0 17.758,7.95 17.758,17.759c0,4.508 -1.675,8.616 -4.441,11.75c-2.117,2.791 -6.984,7.008 -9.659,9.675c-0.575,0.575 -1.516,0.575 -2.091,-0c-1.1,-1.1 -3.25,-3.659 -4.9,-3.975c-0.175,-0.05 -0.35,-0.084 -0.525,-0.109c-7.959,-1.766 -13.9,-8.858 -13.9,-17.341c-0,-9.809 7.95,-17.759 17.758,-17.759m-0,13.134c2.558,-0 4.633,2.066 4.633,4.625c0,2.558 -2.075,4.633 -4.633,4.633c-2.558,-0 -4.633,-2.075 -4.633,-4.633c-0,-2.559 2.075,-4.625 4.633,-4.625" style="fill:#4d16a3;"/></svg>